<svg width="193" height="166" viewBox="0 0 193 166" fill="none" xmlns="http://www.w3.org/2000/svg">
<g filter="url(#filter0_b_4802_747)">
<rect x="0.747559" y="0.664978" width="192.175" height="165.335" rx="15.0305" fill="#0A2640" fill-opacity="0.8"/>
</g>
<ellipse cx="22.524" cy="24.6005" rx="4.90874" ry="4.75784" fill="#FC5B00"/>
<ellipse cx="42.159" cy="24.6005" rx="4.90874" ry="4.75784" fill="#ECAA00"/>
<ellipse cx="61.794" cy="24.6005" rx="4.90874" ry="4.75784" fill="#009D10"/>
<rect width="9.67665" height="23.2668" rx="4.83833" transform="matrix(1 0 0 -1 26.4712 151.528)" fill="#0DBBFC"/>
<rect width="9.67665" height="13.4841" rx="4.83833" transform="matrix(1 0 0 -1 45.8245 141.745)" fill="#0DBBFC"/>
<rect x="65.1777" y="65.8639" width="9.67665" height="62.3972" rx="4.83833" fill="#0DBBFC"/>
<rect x="84.5312" y="85.1648" width="9.67665" height="43.0964" rx="4.83833" fill="#0DBBFC"/>
<rect x="103.885" y="45.2411" width="9.67666" height="83.02" rx="4.83833" fill="#95ABBC"/>
<rect x="123.238" y="69.5655" width="9.67664" height="58.6957" rx="4.83832" fill="#0DBBFC"/>
<rect x="142.591" y="58.1965" width="9.67664" height="70.0647" rx="4.83832" fill="#0DBBFC"/>
<rect x="161.944" y="96.2693" width="9.67667" height="31.9918" rx="4.83833" fill="#0DBBFC"/>
<defs>
<filter id="filter0_b_4802_747" x="-143.252" y="-143.335" width="480.175" height="453.335" filterUnits="userSpaceOnUse" color-interpolation-filters="sRGB">
<feFlood flood-opacity="0" result="BackgroundImageFix"/>
<feGaussianBlur in="BackgroundImageFix" stdDeviation="72"/>
<feComposite in2="SourceAlpha" operator="in" result="effect1_backgroundBlur_4802_747"/>
<feBlend mode="normal" in="SourceGraphic" in2="effect1_backgroundBlur_4802_747" result="shape"/>
</filter>
</defs>
</svg>
